<?xml version="1.0" standalone="no"?>
<!DOCTYPE svg PUBLIC "-//W3C//DTD SVG 20010904//EN"
 "http://www.w3.org/TR/2001/REC-SVG-20010904/DTD/svg10.dtd">
<svg version="1.0" xmlns="http://www.w3.org/2000/svg"
 width="1024.000000pt" height="1024.000000pt" viewBox="0 0 1024.000000 1024.000000"
 preserveAspectRatio="xMidYMid meet">

<g transform="translate(0.000000,1024.000000) scale(0.100000,-0.100000)"
fill="#000000" stroke="none">
<path d="M4880 9409 c-282 -17 -496 -51 -768 -120 -600 -153 -1066 -370 -1577
-734 l-131 -93 -204 -4 c-188 -3 -209 -5 -254 -26 -108 -50 -192 -148 -221
-259 -11 -41 -15 -110 -15 -238 l0 -181 -130 -189 c-306 -442 -511 -856 -635
-1280 -135 -463 -198 -956 -175 -1370 21 -373 68 -679 149 -978 24 -88 27
-109 16 -120 -249 -237 -295 -306 -279 -413 13 -89 113 -194 255 -269 l69 -36
0 -77 c0 -150 45 -257 147 -353 103 -96 210 -139 344 -139 l77 0 73 -92 c608
-761 1394 -1282 2330 -1542 396 -110 755 -158 1189 -159 436 -2 827 55 1267
182 625 181 1204 498 1693 928 194 171 431 425 574 616 l50 67 82 0 c189 0
366 108 446 272 36 73 47 127 48 220 l0 76 82 47 c152 88 238 193 238 291 0
79 -38 142 -168 276 l-114 117 40 158 c48 190 96 468 119 687 22 224 22 643 0
836 -94 790 -354 1451 -830 2109 l-97 133 0 187 c0 202 -9 257 -57 338 -33 57
-104 120 -171 151 -55 26 -66 27 -268 32 l-210 5 -90 66 c-466 347 -997 600
-1569 749 -451 118 -866 158 -1325 129z m930 -313 c58 -30 109 -87 130 -143
19 -51 20 -79 20 -627 0 -644 1 -635 -72 -708 -64 -64 -90 -71 -291 -77 l-179
-6 -31 -36 c-18 -19 -64 -74 -104 -121 -76 -91 -125 -123 -168 -112 -15 4 -55
39 -93 82 -37 42 -91 101 -120 133 l-53 57 -182 4 c-179 3 -183 4 -230 31 -60
35 -102 93 -116 158 -7 32 -11 247 -11 603 0 615 0 618 66 694 37 44 78 70
129 83 17 4 309 7 650 6 583 -2 622 -3 655 -21z m-1907 -363 c7 -7 34 -23 60
-36 l48 -23 -51 -23 c-48 -22 -100 -78 -100 -108 0 -25 -16 -12 -29 22 -13 37
-56 75 -110 98 l-34 14 36 12 c50 17 84 46 108 94 l21 41 20 -40 c10 -21 24
-44 31 -51z m2597 -19 c14 -8 38 -19 54 -24 l30 -11 -51 -23 c-49 -23 -84 -60
-102 -107 -8 -23 -9 -23 -23 11 -19 42 -51 73 -103 99 l-39 19 46 20 c43 19
87 65 102 107 6 17 11 13 34 -29 15 -26 38 -54 52 -62z m-3156 -40 c21 -20 20
-43 -1 -66 -31 -34 -83 -12 -83 36 0 44 52 63 84 30z m3647 6 c22 -12 26 -59
7 -78 -17 -17 -48 -15 -70 5 -22 20 -23 46 -2 67 18 19 38 20 65 6z m-2859
-396 c6 -4 1 -108 -7 -131 -3 -9 -27 -13 -74 -13 -86 0 -144 -21 -262 -96 -47
-30 -89 -54 -93 -54 -3 0 -6 15 -6 33 0 19 -7 56 -15 83 l-15 49 27 23 c58 46
186 105 248 113 56 7 181 2 197 -7z m2318 -33 c36 -19 88 -49 117 -67 l51 -33
-14 -47 c-8 -26 -14 -62 -14 -81 0 -18 -3 -33 -7 -33 -3 0 -54 27 -112 60
-135 75 -177 90 -262 90 l-69 0 0 76 0 76 123 -4 c115 -4 126 -6 187 -37z
m-3102 -4 c18 -10 51 -36 72 -59 63 -64 70 -102 70 -390 l0 -248 -44 -57 c-79
-106 -89 -143 -96 -351 -5 -198 -5 -196 -65 -207 -16 -3 -293 -5 -615 -3
l-585 3 -47 27 c-58 35 -103 88 -123 147 -22 66 -22 937 0 1002 23 63 58 104
117 133 l53 27 615 -3 c571 -3 617 -4 648 -21z m4878 13 c47 -18 102 -69 126
-118 l23 -47 0 -485 0 -485 -27 -51 c-33 -64 -95 -118 -151 -133 -30 -9 -209
-11 -639 -9 -558 3 -598 4 -615 21 -15 15 -19 43 -24 190 -7 205 -20 252 -105
362 l-36 48 4 256 c4 244 5 258 27 301 41 80 103 133 176 151 49 11 1210 11
1241 -1z m-2049 -316 c-3 -3 -12 -4 -19 -1 -8 3 -5 6 6 6 11 1 17 -2 13 -5z
m50 -10 c-3 -3 -12 -4 -19 -1 -8 3 -5 6 6 6 11 1 17 -2 13 -5z m-2267 -24 c-8
-5 -19 -10 -25 -10 -5 0 -3 5 5 10 8 5 20 10 25 10 6 0 3 -5 -5 -10z m2197
-52 c-2 -13 -4 -5 -4 17 -1 22 1 32 4 23 2 -10 2 -28 0 -40z m188 34 c-3 -3
-11 0 -18 7 -9 10 -8 11 6 5 10 -3 15 -9 12 -12z m-2228 -39 c-3 -10 -5 -4 -5
12 0 17 2 24 5 18 2 -7 2 -21 0 -30z m2268 19 c-3 -3 -11 0 -18 7 -9 10 -8 11
6 5 10 -3 15 -9 12 -12z m117 -52 c37 -23 68 -43 68 -46 0 -7 -84 39 -88 49
-2 4 -9 7 -15 7 -14 1 -55 30 -42 30 5 0 39 -18 77 -40z m-2711 6 c-6 -8 -21
-16 -32 -19 -24 -6 -19 1 13 19 31 16 32 16 19 0z m2417 -62 c26 -9 78 -30
117 -46 38 -15 79 -28 90 -28 17 0 17 -2 5 -10 -8 -5 -72 -10 -142 -10 l-128
0 1 83 c1 45 4 70 6 55 3 -21 14 -30 51 -44z m-2079 -46 l1 -48 -122 0 c-68 0
-130 5 -138 10 -11 7 -12 10 -2 10 14 0 137 50 185 75 16 8 35 15 43 15 8 0
14 8 15 18 2 34 17 -33 18 -80z m-411 62 c-7 -11 -15 -15 -17 -9 -2 6 3 15 10
20 20 12 21 11 7 -11z m2862 -65 c0 -33 -4 -45 -15 -45 -8 0 -15 5 -15 11 0 5
5 7 10 4 6 -4 10 10 10 34 0 23 2 41 5 41 3 0 5 -20 5 -45z m-2873 3 c-3 -8
-6 -5 -6 6 -1 11 2 17 5 13 3 -3 4 -12 1 -19z m130 -34 c-3 -3 -12 -4 -19 -1
-8 3 -5 6 6 6 11 1 17 -2 13 -5z m441 -235 c26 -23 65 -51 87 -63 l40 -21
-215 -6 c-235 -6 -276 -15 -358 -71 -52 -36 -104 -113 -100 -148 2 -20 8 -25
33 -25 25 0 34 7 53 43 31 56 89 98 155 112 33 7 192 10 454 9 l403 -1 34 -41
35 -42 -105 -5 c-90 -4 -108 -8 -120 -24 -17 -24 -18 -37 -1 -58 10 -14 38
-17 168 -20 115 -2 160 -7 173 -17 9 -8 48 -16 90 -19 58 -3 86 0 135 17 51
17 84 21 198 21 113 0 140 3 155 17 23 21 23 38 -2 63 -17 17 -33 20 -115 20
-52 0 -95 4 -95 8 0 4 17 25 39 46 l38 37 424 -3 424 -3 60 -30 c50 -25 65
-39 88 -83 28 -51 44 -60 81 -46 21 8 20 27 -4 73 -43 86 -133 144 -247 161
-37 5 -151 10 -253 10 l-185 1 41 20 c23 11 65 40 93 64 l53 45 217 0 c166 0
230 -4 269 -15 104 -31 189 -124 210 -230 7 -32 12 -134 12 -227 l0 -168
-1599 0 -1600 0 -6 55 c-10 78 0 333 15 377 15 43 74 123 111 151 65 47 120
56 352 57 l219 0 46 -41z m-2724 -515 c26 -10 37 -39 27 -67 -13 -33 -46 -43
-76 -23 -29 19 -32 51 -8 78 17 19 31 22 57 12z m7230 -16 c20 -28 20 -43 0
-62 -24 -24 -61 -20 -80 9 -15 23 -15 27 0 50 21 32 59 33 80 3z m-6900 -158
c16 -16 49 -39 73 -51 l44 -21 -93 -60 c-137 -89 -268 -231 -319 -345 -7 -18
-16 -33 -19 -33 -3 0 -36 16 -73 36 -43 23 -65 40 -60 47 22 37 83 121 130
178 56 69 267 279 281 279 4 0 20 -14 36 -30z m6699 -112 c90 -90 167 -176
206 -232 33 -49 60 -90 58 -92 -8 -7 -126 -74 -132 -74 -3 0 -14 20 -25 45
-57 134 -224 303 -357 361 l-56 25 49 29 c27 15 60 40 73 54 14 14 28 26 32
26 4 0 72 -64 152 -142z m-5848 18 c11 -114 2 -235 -20 -280 -24 -50 -74 -100
-128 -128 -38 -21 -60 -23 -237 -28 -131 -3 -202 -9 -217 -18 -57 -32 -66
-122 -16 -162 25 -19 38 -20 369 -20 l344 0 2 -222 3 -223 97 -3 96 -3 11 -63
c6 -34 11 -95 11 -134 l0 -70 -67 -7 c-38 -3 -112 -10 -166 -15 -150 -15 -140
-18 -115 37 49 112 59 202 32 293 -19 63 -35 92 -83 143 -60 64 -122 90 -226
95 -106 5 -176 -16 -242 -73 -23 -19 -48 -35 -56 -35 -25 0 -131 75 -170 120
-55 65 -80 139 -75 230 6 127 71 224 187 278 53 26 65 27 263 32 198 5 209 6
230 27 25 25 36 89 37 221 l1 82 64 0 64 0 7 -74z m618 -63 c4 -75 7 -238 7
-363 0 -125 -3 -288 -7 -363 l-6 -137 -154 0 -153 0 0 224 c0 172 -3 226 -13
234 -7 6 -51 14 -98 16 -46 3 -85 6 -86 6 -2 0 10 26 26 58 40 77 51 149 51
319 l0 143 213 0 214 0 6 -137z m3998 115 c11 -341 14 -364 58 -445 l28 -51
-86 -7 c-47 -3 -91 -8 -97 -10 -19 -6 -24 -61 -24 -266 l0 -199 -154 0 -153 0
-7 38 c-8 49 -8 673 1 835 l6 127 214 0 213 0 1 -22z m329 -85 c0 -121 10
-171 41 -199 19 -17 43 -20 228 -24 240 -6 266 -14 355 -102 71 -72 100 -145
94 -243 -3 -41 -14 -90 -26 -118 -27 -61 -113 -145 -178 -175 l-51 -24 -34 31
c-66 61 -112 76 -229 76 -95 0 -110 -3 -156 -27 -67 -35 -138 -115 -163 -184
-37 -98 -27 -200 34 -348 8 -18 5 -19 -66 -13 -238 21 -292 27 -297 32 -8 7
-2 182 6 225 l8 35 99 5 100 5 3 223 2 222 336 0 c236 0 342 3 357 12 34 18
46 40 47 84 0 32 -6 46 -31 70 l-30 29 -197 6 c-176 4 -201 7 -238 27 -64 33
-100 68 -128 124 -25 49 -26 61 -26 205 l0 153 70 0 70 0 0 -107z m-2632 48
c8 0 12 -18 12 -50 l0 -50 -47 -6 c-299 -38 -331 -54 -340 -169 -6 -71 -8 -73
-104 -106 -35 -13 -37 -12 -70 24 -65 70 -119 60 -257 -46 -164 -126 -291
-268 -397 -444 -43 -71 -44 -106 -6 -166 l29 -45 -23 -78 c-21 -75 -24 -78
-61 -91 -56 -19 -91 -62 -98 -120 -20 -174 -12 -630 14 -730 5 -23 3 -36 -11
-53 -41 -50 -3 -121 64 -121 19 0 48 -3 65 -6 l30 -6 -19 -42 c-23 -50 -24
-78 -4 -120 13 -27 15 -122 13 -701 l-3 -670 -107 0 -108 0 0 1897 0 1897 53
3 c51 3 1350 2 1375 -1z m1592 -1 c13 0 15 -142 15 -1218 0 -669 -1 -1521 -2
-1893 -3 -635 -4 -677 -20 -681 -10 -3 -60 -3 -110 0 l-93 4 0 672 c1 574 3
674 15 690 19 26 19 99 0 136 l-16 30 33 0 c131 1 184 68 117 145 l-31 35 23
83 c40 142 39 618 -2 702 -21 42 -62 67 -117 73 -48 4 -49 5 -65 51 -24 66
-22 76 28 143 58 77 59 110 8 193 -100 163 -236 312 -399 436 -131 100 -184
109 -250 41 l-34 -35 -70 27 c-70 28 -70 28 -70 66 0 93 -29 141 -96 159 -22
5 -91 17 -154 27 -63 9 -116 17 -117 18 0 0 -4 22 -8 48 l-7 48 473 3 c261 2
578 2 704 0 127 -2 237 -3 245 -3z m1464 -70 c18 -5 -23 -8 -104 -8 -85 0
-124 3 -105 8 37 10 166 10 209 0z m-5766 -7 c-38 -2 -98 -2 -135 0 -38 2 -7
3 67 3 74 0 105 -1 68 -3z m2705 -243 c10 -41 23 -80 30 -87 12 -11 46 -16
100 -14 32 1 50 34 68 124 l11 59 60 -7 c34 -4 82 -12 107 -19 l46 -11 -3
-111 c-2 -83 1 -114 11 -122 7 -6 46 -23 87 -38 41 -14 96 -37 123 -51 l47
-24 35 38 c20 21 45 52 57 69 40 58 53 60 111 16 29 -22 70 -55 91 -74 l39
-34 -51 -68 c-56 -72 -61 -93 -35 -132 35 -54 98 -50 178 11 25 19 49 35 53
35 10 0 75 -86 97 -128 l17 -34 -83 -80 -83 -79 13 -32 c7 -18 29 -77 47 -132
19 -54 40 -103 47 -107 6 -4 49 -8 94 -8 68 0 84 -3 92 -17 7 -15 17 -151 12
-190 -1 -9 -22 -13 -69 -13 -77 0 -92 -9 -92 -56 0 -42 10 -48 95 -54 l70 -5
-4 -85 c-1 -47 -7 -89 -12 -94 -5 -6 -49 -12 -99 -14 l-90 -4 -15 -51 c-8 -28
-15 -55 -15 -60 0 -5 -16 -50 -36 -99 l-37 -90 82 -82 c44 -45 81 -89 81 -98
0 -16 -59 -108 -90 -142 -18 -18 -19 -18 -67 16 -26 20 -65 41 -87 48 -34 11
-41 10 -65 -7 -32 -24 -50 -59 -44 -82 3 -10 26 -45 53 -78 l49 -60 -32 -30
c-48 -45 -133 -103 -150 -103 -8 0 -40 29 -72 65 -66 75 -76 77 -161 36 -32
-15 -77 -34 -99 -41 -22 -7 -53 -19 -68 -27 l-29 -14 4 -112 3 -112 -36 -12
c-20 -6 -67 -13 -105 -15 l-69 -3 -9 40 c-31 142 -37 149 -110 142 -62 -6 -82
-28 -91 -102 -12 -89 -15 -91 -131 -74 l-99 14 0 117 c0 65 -4 121 -10 126 -5
5 -35 17 -65 27 -30 10 -81 31 -114 46 -32 16 -64 29 -71 29 -7 0 -43 -32 -79
-72 l-66 -72 -35 18 c-19 11 -62 44 -95 74 l-60 54 44 49 c61 68 71 99 43 141
-40 58 -98 53 -184 -18 -43 -35 -45 -36 -64 -18 -33 30 -99 135 -99 158 0 13
29 48 82 98 l82 77 -32 73 c-17 40 -39 102 -48 138 -10 36 -21 70 -26 76 -4 6
-49 14 -99 16 -62 4 -94 10 -100 19 -5 8 -8 50 -7 94 l3 80 73 5 c75 5 102 21
102 59 0 36 -31 51 -107 51 l-73 0 0 84 c0 47 4 96 10 110 9 25 13 26 94 26
103 0 116 9 147 105 12 39 33 93 46 120 l23 50 -85 81 c-47 45 -85 88 -85 96
0 15 77 125 103 147 14 11 25 7 78 -33 89 -67 139 -64 178 12 16 31 7 53 -49
122 l-49 58 47 44 c66 61 116 98 134 98 9 0 40 -30 69 -67 30 -36 61 -71 71
-76 12 -8 35 -2 95 25 43 19 96 41 118 48 66 21 66 20 59 145 -8 129 -15 119
98 135 112 14 110 15 131 -70z m-3655 -133 c16 -44 58 -83 107 -100 l40 -14
-46 -20 c-49 -22 -93 -70 -104 -115 -9 -36 -21 -36 -28 1 -8 40 -51 87 -97
107 -48 21 -50 30 -9 39 39 9 98 68 106 106 7 38 16 37 31 -4z m7547 -19 c16
-34 31 -48 72 -68 29 -14 52 -28 53 -31 0 -4 -11 -10 -24 -13 -39 -10 -87 -57
-109 -106 l-20 -45 -13 40 c-15 43 -74 102 -111 111 -31 8 -29 20 4 29 43 10
80 43 99 85 10 22 20 40 23 40 4 0 15 -19 26 -42z m-6473 -508 c80 -22 137
-102 138 -191 0 -32 -11 -67 -39 -125 -38 -78 -149 -244 -163 -244 -13 0 -108
142 -144 216 -60 121 -59 214 4 284 55 61 125 81 204 60z m5473 -1 c75 -21
145 -115 145 -196 0 -35 -40 -132 -87 -212 -52 -88 -95 -150 -105 -151 -11 0
-119 160 -160 238 -31 59 -38 84 -38 128 0 70 19 114 64 150 62 50 112 62 181
43z m-5959 -63 l81 -38 0 -81 c0 -61 5 -96 21 -137 28 -70 28 -72 -6 -91 l-28
-16 -45 55 c-26 32 -67 68 -99 86 -51 29 -62 31 -150 31 -80 0 -102 -4 -138
-23 -58 -31 -114 -88 -143 -148 -35 -72 -35 -197 2 -275 15 -31 43 -74 63 -96
20 -22 36 -44 36 -48 0 -4 -23 -5 -52 -2 -137 17 -248 165 -248 331 0 133 49
245 150 346 113 114 206 151 370 147 99 -2 110 -5 186 -41z m6659 29 c85 -23
152 -62 221 -130 77 -76 119 -150 140 -244 31 -136 6 -252 -73 -349 -56 -69
-174 -117 -211 -86 -2 1 14 25 36 53 74 93 103 204 78 300 -41 161 -166 251
-329 238 -105 -9 -182 -62 -253 -175 -4 -6 -64 34 -64 43 0 6 10 35 21 65 16
39 22 79 23 139 l1 83 49 26 c97 51 247 66 361 37z m-7471 -96 c31 -25 33 -49
6 -74 -48 -43 -108 28 -64 76 21 24 25 24 58 -2z m8020 -12 c7 -11 7 -25 0
-44 -18 -53 -94 -35 -94 22 0 49 67 65 94 22z m-5840 -23 c3 -9 6 -51 6 -95
l0 -79 -54 0 -55 0 0 95 -1 95 49 0 c35 0 51 -4 55 -16z m3686 -79 l0 -95 -55
0 -55 0 0 95 0 95 55 0 55 0 0 -95z m-5210 -197 c48 -33 74 -88 65 -138 -9
-53 -36 -85 -90 -106 -43 -16 -47 -16 -90 0 -75 29 -110 104 -85 180 25 77
131 111 200 64z m6777 2 c63 -38 83 -107 53 -180 -35 -85 -175 -97 -232 -19
-87 117 55 275 179 199z m-7517 -68 c0 -201 106 -385 269 -465 113 -55 234
-42 318 36 43 39 47 41 113 42 68 0 69 0 74 -29 14 -71 -122 -170 -278 -203
-98 -20 -207 -4 -322 47 -114 51 -245 199 -279 314 -25 81 -37 195 -30 268 l7
68 64 0 64 0 0 -78z m8256 32 c9 -60 -3 -200 -22 -266 -48 -161 -172 -294
-336 -359 -66 -26 -220 -37 -296 -20 -85 18 -152 53 -226 119 -36 31 -36 33
-25 70 11 37 11 37 69 39 56 1 60 -1 104 -43 86 -82 208 -94 334 -33 157 76
261 264 262 472 l0 67 64 0 65 0 7 -46z m-1625 -110 c172 -264 181 -265 330
-36 29 45 59 82 66 82 18 0 79 -79 107 -140 20 -42 26 -71 26 -125 0 -102 -23
-158 -95 -231 -51 -51 -71 -64 -133 -83 -80 -26 -141 -25 -221 2 -107 38 -203
138 -236 250 -23 76 -20 229 6 313 20 63 47 119 55 111 2 -2 45 -66 95 -143z
m-4999 47 c18 -47 22 -76 22 -186 1 -126 0 -132 -30 -195 -91 -188 -292 -265
-472 -180 -115 54 -182 152 -190 276 -6 97 15 158 80 229 27 30 53 55 57 55 3
0 41 -52 85 -115 81 -120 97 -135 140 -135 31 0 58 33 173 207 98 150 94 148
135 44z m4316 -7 c7 -8 11 -18 8 -23 -3 -5 2 -8 11 -7 9 0 18 -5 21 -13 3 -9
0 -11 -7 -7 -7 4 -24 0 -39 -10 -15 -10 -31 -19 -35 -19 -4 0 -12 -7 -17 -15
-8 -12 -10 -8 -11 15 -1 25 -3 26 -6 7 -3 -13 1 -30 9 -39 9 -12 10 -15 1 -9
-9 5 -13 0 -13 -13 0 -12 5 -21 11 -21 5 0 7 5 4 10 -4 6 12 9 42 9 43 -1 44
-2 15 -8 -18 -3 -34 -10 -35 -16 -1 -5 -15 -9 -32 -7 -23 2 -27 0 -15 -7 8 -6
69 -11 135 -11 146 0 165 -4 165 -36 0 -13 4 -24 9 -24 6 0 10 -8 9 -17 -2
-92 6 -253 13 -264 5 -9 6 0 3 22 -6 37 24 118 34 90 2 -7 -1 -17 -8 -21 -18
-11 6 -51 28 -48 31 5 45 35 32 72 -6 18 -12 42 -14 52 -2 10 -5 24 -6 29 -1
6 -1 30 0 55 2 40 4 36 11 -27 12 -104 44 -189 99 -263 58 -78 89 -108 155
-149 l50 -31 -42 0 c-108 0 -242 -87 -318 -205 -54 -84 -66 -139 -72 -342 l-6
-183 -147 0 -147 0 -6 122 c-9 157 -9 1006 0 1210 l6 157 26 4 c33 5 61 -2 79
-19z m-3761 10 c-3 -3 -12 -4 -19 -1 -8 3 -5 6 6 6 11 1 17 -2 13 -5z m84
-549 c0 -269 0 -590 -1 -712 l0 -223 -147 0 -148 0 -1 183 c-1 158 -4 190 -23
242 -42 119 -138 224 -251 276 -25 11 -54 25 -66 31 -11 5 -24 8 -30 7 -45 -8
-40 5 14 40 69 45 139 128 182 217 33 69 54 207 48 313 -2 36 1 61 7 62 6 0 4
3 -2 6 -7 2 -13 16 -13 29 0 24 1 24 105 24 58 0 105 -3 105 -7 0 -5 -42 -7
-93 -5 -85 3 -94 2 -94 -15 0 -10 5 -21 11 -25 8 -5 7 -8 -1 -8 -7 0 -13 -7
-13 -16 0 -9 5 -12 12 -8 8 5 9 -2 3 -27 -11 -49 -21 -209 -13 -209 9 0 17 48
15 98 -1 25 3 48 11 54 9 8 12 3 12 -20 0 -17 5 -34 11 -38 8 -4 9 -27 5 -67
-6 -57 -5 -60 10 -41 15 18 15 18 9 -6 -12 -42 -18 -116 -9 -107 12 11 14 49
13 185 l0 112 28 0 c15 1 39 7 53 15 14 8 32 14 40 14 10 0 8 -3 -5 -9 -14 -6
-5 -9 35 -9 38 -1 50 2 40 9 -8 5 -12 12 -9 15 9 9 40 -6 33 -16 -3 -5 5 -9
18 -9 18 0 20 2 8 10 -13 8 -13 10 2 10 9 0 20 -4 23 -10 9 -15 42 -12 48 4 3
7 4 53 2 102 -2 69 -1 81 6 54 6 -19 10 -255 10 -525z m-106 525 c3 -5 -8 -16
-25 -25 -17 -9 -30 -11 -30 -5 0 5 7 10 15 10 9 0 18 7 21 15 7 17 11 19 19 5z
m-68 -36 c-3 -3 -12 -4 -19 -1 -8 3 -5 6 6 6 11 1 17 -2 13 -5z m4128 -3 c19
-8 -158 -4 -180 4 -5 2 28 3 75 4 47 0 94 -4 105 -8z m42 -88 c-2 -16 -4 -5
-4 22 0 28 2 40 4 28 2 -13 2 -35 0 -50z m-310 35 c-3 -8 -6 -5 -6 6 -1 11 2
17 5 13 3 -3 4 -12 1 -19z m33 12 c0 -5 -4 -10 -10 -10 -5 0 -10 5 -10 10 0 6
5 10 10 10 6 0 10 -4 10 -10z m247 -12 c-3 -8 -6 -5 -6 6 -1 11 2 17 5 13 3
-3 4 -12 1 -19z m-312 2 c3 -5 -1 -10 -10 -10 -9 0 -13 5 -10 10 3 6 8 10 10
10 2 0 7 -4 10 -10z m131 -45 c12 -9 14 -14 6 -15 -7 0 -20 7 -28 15 -20 19
-4 20 22 0z m-3821 -15 c3 -5 1 -10 -4 -10 -6 0 -11 5 -11 10 0 6 2 10 4 10 3
0 8 -4 11 -10z m3715 0 c0 -5 -4 -10 -10 -10 -5 0 -10 5 -10 10 0 6 5 10 10
10 6 0 10 -4 10 -10z m60 0 c0 -5 -11 -10 -25 -10 -14 0 -25 5 -25 10 0 6 11
10 25 10 14 0 25 -4 25 -10z m227 -132 c-3 -8 -6 -5 -6 6 -1 11 2 17 5 13 3
-3 4 -12 1 -19z m33 -128 c0 -5 -4 -10 -10 -10 -5 0 -10 5 -10 10 0 6 5 10 10
10 6 0 10 -4 10 -10z m-4644 -527 c58 -31 103 -79 131 -139 l24 -52 -3 -523
c-3 -584 0 -558 -75 -632 -75 -76 -33 -72 -757 -75 -719 -3 -712 -3 -774 61
-51 53 -62 92 -62 223 l0 117 -37 35 c-21 19 -87 65 -147 101 -60 36 -118 78
-128 92 -18 24 -19 29 -5 56 19 36 105 117 211 198 43 33 84 65 91 70 9 7 14
55 17 155 5 159 13 191 68 254 37 42 78 66 130 77 19 4 314 6 655 6 619 -2
620 -2 661 -24z m6213 10 c63 -20 125 -77 154 -141 18 -39 22 -72 25 -195 l4
-148 77 -56 c159 -118 231 -192 231 -240 0 -27 -52 -73 -140 -123 -92 -53
-137 -87 -153 -114 -7 -12 -14 -77 -17 -148 -5 -121 -6 -128 -35 -170 -17 -23
-51 -54 -75 -68 l-45 -25 -665 0 -665 0 -49 25 c-58 30 -109 86 -124 139 -17
54 -17 1054 0 1102 16 47 57 103 95 129 72 49 68 49 719 50 545 0 617 -2 663
-17z m-4790 -434 c104 -104 191 -162 278 -184 54 -14 75 -12 130 17 52 26 153
-35 153 -93 0 -39 27 -97 48 -103 10 -3 73 -13 142 -22 141 -19 170 -27 170
-49 0 -13 -52 -15 -435 -15 l-436 0 -24 -25 c-16 -15 -25 -36 -25 -55 0 -19 9
-40 25 -55 l24 -25 441 0 440 0 0 -140 0 -140 -530 0 -530 0 1 518 c0 481 1
515 16 492 9 -14 60 -68 112 -121z m2141 -374 l0 -515 -522 2 -523 3 -3 138
-3 137 436 0 436 0 24 25 c30 29 32 74 6 106 l-19 24 -442 3 c-407 2 -441 4
-438 19 4 20 24 25 191 49 147 21 157 28 164 114 l5 65 70 28 70 27 33 -20
c63 -39 134 -22 257 61 73 50 235 202 243 230 4 11 8 19 11 19 2 0 4 -232 4
-515z m-2920 30 l0 -75 -150 0 -150 0 0 68 c0 38 3 72 7 75 3 4 71 7 150 7
l143 0 0 -75z m3870 0 l0 -75 -150 0 -150 0 0 75 0 75 150 0 150 0 0 -75z
m-3885 -262 c13 -4 15 -57 15 -349 0 -189 -2 -344 -5 -344 -3 0 -15 6 -26 13
-15 8 -23 8 -25 2 -3 -6 -21 -10 -42 -8 -28 2 -32 1 -17 -6 l20 -9 -20 -7
c-11 -4 -26 -9 -32 -11 -7 -2 -11 -9 -9 -16 1 -7 1 -10 -1 -6 -2 4 -11 4 -19
1 -17 -6 -19 8 -2 25 9 9 9 12 0 12 -7 0 -12 -4 -12 -10 0 -5 -7 -10 -16 -10
-14 0 -14 3 -4 15 7 9 8 15 2 15 -13 0 -25 -32 -14 -39 5 -3 15 -17 21 -31 10
-19 6 -17 -15 8 -15 19 -44 50 -65 69 -21 20 -36 40 -32 46 3 6 1 7 -5 3 -6
-3 -27 1 -46 11 -29 13 -35 21 -30 37 5 17 4 19 -7 9 -13 -13 -51 -18 -61 -7
-3 3 9 20 27 37 39 39 93 133 99 173 3 16 11 50 19 75 8 25 18 104 22 176 l7
130 130 1 c71 1 135 -1 143 -5z m3852 1 l30 -6 6 -126 c3 -70 9 -138 13 -152
7 -23 6 -24 -10 -11 -14 12 -13 7 4 -22 12 -20 23 -43 24 -51 4 -29 80 -157
113 -191 19 -19 29 -35 24 -35 -6 0 -35 -9 -66 -21 -70 -26 -143 -83 -183
-145 -31 -45 -43 -54 -22 -14 8 15 4 24 -19 48 -23 22 -31 26 -35 15 -3 -8
-10 -12 -15 -9 -5 3 -11 -3 -14 -14 -7 -26 -27 -26 -27 0 0 22 -16 27 -23 8
-3 -8 -9 -3 -14 11 l-9 24 -14 -32 c-9 -23 -15 -29 -21 -19 -5 7 -9 178 -9
381 l0 367 119 0 c65 0 132 -3 148 -6z m-447 -749 c0 -306 -16 -370 -115 -474
-37 -39 -77 -68 -118 -87 l-62 -29 -1310 0 -1310 0 -55 27 c-73 36 -130 86
-170 148 -54 84 -59 115 -60 382 -1 134 -1 246 -1 251 1 4 721 7 1601 7 l1600
0 0 -225z m-3965 175 c-3 -5 -18 -10 -33 -9 l-27 1 25 8 c35 11 42 11 35 0z
m4772 -6 c-3 -3 -12 -4 -19 -1 -8 3 -5 6 6 6 11 1 17 -2 13 -5z m-4872 -14
c-27 -12 -35 -12 -35 0 0 6 12 10 28 9 24 0 25 -1 7 -9z m4966 -7 c12 -16 12
-17 -1 -7 -8 7 -24 14 -35 17 -19 4 -19 5 1 6 12 0 28 -7 35 -16z m-5051 -27
c0 -2 -7 -7 -16 -10 -8 -3 -12 -2 -9 4 6 10 25 14 25 6z m5331 -19 c-10 -9
-11 -8 -5 6 3 10 9 15 12 12 3 -3 0 -11 -7 -18z m-200 -4 c13 -16 12 -17 -3
-4 -10 7 -18 15 -18 17 0 8 8 3 21 -13z m179 -12 c0 -5 -7 -12 -16 -15 -14 -5
-15 -4 -4 9 14 17 20 19 20 6z m-5402 -45 c-7 -8 -15 -12 -17 -11 -5 6 10 25
20 25 5 0 4 -6 -3 -14z m5371 11 c-2 -1 -13 -9 -24 -17 -19 -14 -19 -14 -6 3
7 9 18 17 24 17 6 0 8 -1 6 -3z m-4582 -33 c-9 -9 -28 6 -21 18 4 6 10 6 17
-1 6 -6 8 -13 4 -17z m3793 -4 c0 -5 -4 -10 -10 -10 -5 0 -10 5 -10 10 0 6 5
10 10 10 6 0 10 -4 10 -10z m-4193 -36 c47 -17 117 -87 139 -139 8 -19 14 -62
14 -95 0 -95 -50 -178 -135 -223 -57 -30 -173 -30 -231 0 -48 26 -101 83 -121
132 -20 48 -19 150 2 193 69 135 189 183 332 132z m4652 -49 c30 -94 30 -95
-30 -95 l-52 0 7 43 c12 74 26 117 40 117 7 0 23 -29 35 -65z m-128 -20 l-15
-75 -68 0 c-82 0 -86 11 -28 74 37 40 90 75 116 76 7 0 5 -25 -5 -75z m216 48
c30 -20 83 -90 83 -110 0 -10 -11 -13 -42 -11 l-41 3 -23 68 c-24 70 -20 78
23 50z m-229 -220 l3 -43 -80 0 -81 0 0 45 0 46 78 -3 77 -3 3 -42z m172 18
c0 -53 -8 -61 -61 -61 l-49 0 0 45 0 45 55 0 c54 0 55 0 55 -29z m158 -13 l-3
-43 -44 -3 c-48 -4 -61 6 -61 49 0 35 6 39 62 39 l49 0 -3 -42z m-319 -163 c8
-37 11 -68 8 -71 -6 -7 -75 29 -102 53 -24 21 -55 64 -55 75 0 5 31 8 68 8
l68 0 13 -65z m147 38 c-20 -80 -27 -102 -40 -113 -12 -9 -18 -6 -31 19 -8 17
-18 51 -22 76 l-6 45 53 0 c52 0 52 0 46 -27z m154 20 c0 -21 -44 -75 -80 -99
-22 -15 -42 -25 -43 -23 -2 2 5 32 16 67 l19 62 44 0 c24 0 44 -3 44 -7z
m-553 -171 c-25 -30 -264 -172 -290 -172 -8 0 62 163 75 175 7 8 46 36 87 63
l74 51 33 -52 c25 -40 30 -55 21 -65z m-3895 52 c71 -51 83 -64 108 -118 15
-34 31 -72 35 -85 l7 -22 -50 25 c-28 14 -67 37 -87 50 -19 13 -55 34 -78 45
-23 12 -53 29 -65 39 l-24 19 32 51 c17 29 34 52 37 52 3 0 41 -25 85 -56z
m58 -223 c75 -38 161 -87 191 -110 30 -23 87 -55 128 -72 102 -43 269 -59 613
-59 259 0 268 -1 278 -20 13 -24 5 -60 -13 -60 -7 -1 -187 -2 -402 -3 -297 -2
-403 0 -444 10 -109 27 -443 183 -543 254 l-27 20 37 54 c20 30 39 55 41 55 2
0 66 -31 141 -69z m3821 5 l36 -54 -61 -35 c-136 -78 -410 -204 -492 -226 -23
-6 -213 -11 -459 -12 l-420 -2 -9 27 c-20 53 -13 55 349 59 439 6 518 20 648
113 34 24 76 49 92 56 17 6 80 37 140 69 61 31 117 57 125 58 9 1 32 -23 51
-53z m-1856 -130 c187 -86 265 -318 167 -499 -96 -178 -343 -230 -519 -111
-177 121 -204 365 -56 524 55 59 95 84 173 107 65 19 169 9 235 -21z m-1749
-297 c17 -19 17 -23 3 -47 -18 -33 -44 -39 -70 -16 -21 19 -24 36 -9 65 14 25
52 24 76 -2z m3272 9 c7 -7 12 -25 12 -40 0 -34 -41 -59 -68 -41 -21 12 -28
59 -11 79 14 17 51 18 67 2z"/>
<path d="M5301 8929 c-44 -23 -104 -100 -99 -127 2 -8 28 -24 59 -37 l56 -22
10 28 c16 41 55 57 88 35 14 -10 29 -24 32 -32 8 -22 -16 -61 -59 -96 l-38
-29 -63 25 c-125 50 -231 42 -359 -26 -105 -56 -196 -185 -214 -302 -5 -39
-15 -57 -45 -86 -36 -34 -39 -41 -39 -92 0 -184 143 -371 336 -439 82 -29 212
-36 291 -16 183 47 322 175 373 345 36 120 14 214 -54 224 -12 2 -22 11 -23
23 -11 77 -29 132 -64 190 -23 37 -39 68 -37 69 38 23 103 87 118 116 43 84
21 166 -63 234 -52 41 -141 48 -206 15z m-41 -419 c44 -48 62 -60 86 -60 25 0
33 -6 48 -37 9 -20 20 -58 23 -85 l6 -48 -41 0 c-51 0 -93 -33 -117 -92 -35
-90 -102 -124 -178 -90 -50 22 -59 32 -82 96 -22 59 -61 86 -123 86 l-44 0 7
43 c23 148 168 265 309 252 46 -4 55 -10 106 -65z m-360 -416 c34 -70 86 -114
160 -134 129 -36 280 31 327 146 l18 44 54 0 53 0 -7 -37 c-16 -91 -91 -180
-193 -230 -73 -36 -80 -38 -176 -38 -91 0 -107 3 -159 29 -79 38 -160 122
-187 192 -26 69 -25 82 3 87 68 13 73 11 107 -59z"/>
<path d="M2476 8178 c-8 -13 -17 -33 -21 -45 -6 -22 -11 -23 -110 -23 -123 0
-175 -16 -204 -64 -22 -36 -28 -181 -23 -599 l2 -237 34 -38 34 -37 494 -3
c454 -2 496 -1 528 15 69 35 70 41 70 474 0 527 31 489 -402 489 l-288 0 0 23
c0 58 -84 91 -114 45z m-22 -230 c8 -42 33 -68 65 -68 43 0 71 26 71 66 l0 34
278 -2 277 -3 3 -157 3 -158 -98 0 c-143 0 -202 -18 -301 -92 l-52 -39 -43 35
c-24 20 -70 48 -102 62 -51 24 -76 28 -182 32 l-123 5 0 158 0 159 99 0 99 0
6 -32z m66 -452 c19 -11 59 -39 88 -63 73 -59 106 -59 183 2 93 73 127 85 252
85 l108 0 -3 -122 -3 -123 -447 -3 -448 -2 0 126 0 126 118 -4 c89 -3 125 -8
152 -22z"/>
<path d="M7080 8062 c-40 -20 -80 -88 -80 -137 0 -42 48 -134 83 -159 15 -11
48 -23 73 -26 l46 -5 70 -160 c38 -88 72 -168 75 -177 3 -10 -3 -35 -13 -55
-23 -50 -22 -109 3 -158 47 -91 84 -105 284 -105 146 0 167 2 207 21 104 51
133 182 61 280 -10 13 4 44 71 168 45 84 108 185 139 224 130 163 140 187 104
248 -35 59 -33 59 -585 59 -459 0 -506 -2 -538 -18z m480 -147 l0 -35 -205 0
-205 0 -6 24 c-3 14 -3 30 1 35 4 7 78 11 211 11 l204 0 0 -35z m510 27 c0 -5
-13 -20 -28 -35 l-28 -27 -172 0 -172 0 0 35 0 35 200 0 c110 0 200 -4 200 -8z
m-510 -237 l0 -56 -86 3 -87 3 -23 53 -23 52 110 0 109 0 0 -55z m350 50 c0
-3 -12 -27 -27 -55 l-28 -50 -92 0 -93 0 0 55 0 55 120 0 c66 0 120 -2 120 -5z
m-127 -275 l-26 -50 -141 0 -142 0 -22 45 c-12 25 -22 49 -22 53 0 4 85 6 189
4 l190 -3 -26 -49z m-9 -186 c21 -8 20 -43 -1 -66 -14 -16 -33 -18 -148 -18
-126 0 -132 1 -154 24 -19 20 -21 28 -12 45 11 20 20 21 156 21 79 0 150 -3
159 -6z"/>
<path d="M4278 7143 c7 -3 16 -2 19 1 4 3 -2 6 -13 5 -11 0 -14 -3 -6 -6z"/>
<path d="M5957 7143 c-4 -3 -7 -16 -7 -27 0 -20 0 -20 15 1 8 12 28 24 43 26
23 3 21 4 -9 6 -20 0 -39 -2 -42 -6z"/>
<path d="M3048 6444 c-86 -46 -50 -184 47 -184 99 0 133 140 45 185 -36 19
-57 18 -92 -1z"/>
<path d="M3176 6098 c-23 -13 -20 -55 5 -69 18 -9 25 -7 41 9 36 35 -2 85 -46
60z"/>
<path d="M7150 6453 c-30 -11 -60 -47 -66 -78 -7 -37 16 -89 45 -105 58 -30
137 13 147 81 5 30 2 41 -22 68 -29 31 -74 46 -104 34z"/>
<path d="M7045 6097 c-13 -10 -16 -21 -12 -39 8 -30 31 -42 57 -28 28 15 32
38 10 60 -24 24 -30 24 -55 7z"/>
<path d="M3969 6505 c-1 -3 -2 -10 -3 -17 0 -7 -16 -15 -34 -19 -46 -9 -59
-24 -41 -45 7 -9 16 -37 19 -62 4 -37 10 -49 32 -61 25 -14 29 -14 51 7 13 12
26 19 30 16 3 -4 5 20 5 52 -1 33 2 67 6 77 6 13 4 17 -10 17 -9 0 -15 3 -11
6 7 8 -17 34 -32 34 -6 0 -12 -2 -12 -5z"/>
<path d="M6307 6572 c-4 -5 -1 -13 5 -15 7 -3 3 -6 -9 -6 -13 -1 -30 -12 -39
-26 -15 -22 -24 -25 -83 -26 -36 -1 -58 -3 -48 -6 9 -2 17 -9 17 -13 0 -5 24
-21 54 -35 38 -18 57 -34 66 -55 18 -44 73 -34 82 15 2 11 12 21 23 23 25 3
47 36 39 57 -4 9 -18 15 -36 15 -23 0 -29 4 -24 15 7 18 -38 73 -47 57z"/>
<path d="M5035 5824 c-284 -46 -520 -228 -625 -484 -49 -119 -63 -205 -58
-354 5 -112 10 -143 35 -212 44 -123 106 -218 202 -314 123 -121 233 -181 393
-214 429 -88 845 195 934 635 20 98 15 246 -11 349 -71 276 -307 511 -578 575
-65 16 -241 27 -292 19z m227 -179 c213 -45 386 -198 466 -413 37 -99 42 -259
13 -367 -29 -106 -74 -186 -146 -263 -97 -104 -228 -179 -342 -196 l-43 -6 0
147 0 148 61 28 c230 107 274 404 87 572 -62 56 -131 80 -228 79 -131 0 -239
-72 -297 -198 -37 -81 -40 -204 -6 -278 32 -71 105 -143 179 -178 l64 -30 0
-146 0 -146 -32 7 c-176 35 -327 135 -425 283 -98 149 -125 365 -67 539 50
149 180 301 314 367 130 63 262 80 402 51z m-44 -434 c46 -23 67 -46 87 -94
20 -49 19 -100 -5 -146 -23 -45 -67 -84 -87 -76 -8 2 -11 0 -8 -5 7 -11 -55
-13 -104 -4 -17 4 -41 17 -54 30 -23 25 -43 32 -31 12 5 -8 1 -8 -10 1 -64 52
-61 187 5 248 61 55 140 68 207 34z"/>
<path d="M2349 5585 c-34 -18 -53 -65 -45 -109 14 -76 111 -103 167 -47 83 84
-18 213 -122 156z"/>
<path d="M7825 5578 c-56 -50 -46 -141 20 -173 42 -19 74 -12 110 25 83 87
-39 227 -130 148z"/>
<path d="M3266 5443 c-6 -14 -5 -15 5 -6 7 7 10 15 7 18 -3 3 -9 -2 -12 -12z"/>
<path d="M3285 5420 c3 -5 8 -10 11 -10 2 0 4 5 4 10 0 6 -5 10 -11 10 -5 0
-7 -4 -4 -10z"/>
<path d="M3260 5400 c0 -5 5 -10 10 -10 6 0 10 5 10 10 0 6 -4 10 -10 10 -5 0
-10 -4 -10 -10z"/>
<path d="M7048 4859 c-34 -19 -18 -69 22 -69 11 0 40 29 40 40 0 10 -29 40
-38 40 -4 0 -15 -5 -24 -11z"/>
<path d="M7373 4657 c-2 -18 -7 -33 -13 -35 -5 -2 -10 -11 -10 -20 0 -15 2
-15 10 -2 8 11 9 7 4 -15 -4 -23 -3 -26 5 -15 6 8 11 30 11 48 0 18 4 31 9 28
5 -4 7 3 4 14 -9 32 -18 31 -20 -3z"/>
<path d="M7295 4630 c5 -7 8 -27 7 -44 -1 -17 3 -38 9 -46 7 -11 8 -6 4 18 -3
17 -1 32 4 32 12 0 18 -19 17 -52 -2 -26 0 -27 14 -12 11 12 12 18 3 21 -7 2
-9 11 -6 20 3 8 2 18 -3 22 -5 3 -14 15 -20 25 -6 11 -16 22 -24 24 -8 3 -10
0 -5 -8z"/>
<path d="M7460 4540 c12 -16 24 -30 26 -30 3 0 -4 14 -16 30 -12 17 -24 30
-26 30 -3 0 4 -13 16 -30z"/>
<path d="M7050 4484 l-52 -55 23 -27 c57 -65 83 -92 91 -92 5 0 34 25 64 55
l56 55 -32 40 c-32 40 -77 80 -90 80 -4 0 -31 -25 -60 -56z"/>
<path d="M7440 4531 c0 -6 4 -13 10 -16 6 -3 7 1 4 9 -7 18 -14 21 -14 7z"/>
<path d="M7344 4499 c-3 -6 1 -17 10 -25 9 -8 12 -9 7 -3 -5 6 -7 18 -4 25 6
17 -3 19 -13 3z"/>
<path d="M7445 4440 c-3 -5 -1 -10 4 -10 6 0 11 5 11 10 0 6 -2 10 -4 10 -3 0
-8 -4 -11 -10z"/>
<path d="M7510 4439 c0 -5 5 -7 10 -4 6 3 10 8 10 11 0 2 -4 4 -10 4 -5 0 -10
-5 -10 -11z"/>
<path d="M7550 4439 c0 -5 5 -7 10 -4 6 3 10 8 10 11 0 2 -4 4 -10 4 -5 0 -10
-5 -10 -11z"/>
<path d="M7427 4399 c7 -7 15 -10 18 -7 3 3 -2 9 -12 12 -14 6 -15 5 -6 -5z"/>
<path d="M7051 4191 c-25 -25 -27 -44 -5 -65 21 -21 37 -20 58 3 22 24 18 49
-11 68 -19 13 -24 12 -42 -6z"/>
<path d="M7040 3945 l-23 -25 23 -25 c29 -31 41 -31 69 -1 18 19 21 28 12 44
-10 18 -31 32 -50 32 -4 0 -18 -11 -31 -25z"/>
<path d="M2971 4843 c-1 -24 4 -43 9 -43 12 0 12 24 0 60 -7 21 -8 19 -9 -17z"/>
<path d="M3182 4858 c-7 -7 -12 -22 -12 -35 0 -31 47 -44 67 -18 17 24 16 30
-3 49 -19 19 -36 20 -52 4z"/>
<path d="M2970 4747 c0 -26 4 -47 9 -47 8 0 3 79 -5 89 -2 2 -4 -17 -4 -42z"/>
<path d="M2940 4766 c0 -9 5 -16 10 -16 6 0 10 4 10 9 0 6 -4 13 -10 16 -5 3
-10 -1 -10 -9z"/>
<path d="M2927 4719 c4 -43 1 -58 -11 -68 -13 -11 -16 -11 -16 0 0 7 -16 -10
-35 -37 -19 -27 -35 -60 -35 -74 0 -18 -3 -21 -9 -11 -11 17 -32 5 -24 -14 4
-11 1 -13 -13 -8 -17 6 -18 5 -4 -12 14 -16 13 -17 -8 -11 -12 4 -22 3 -22 -1
0 -5 -10 -19 -21 -32 -25 -26 -21 -32 44 -55 34 -13 52 -15 59 -8 8 8 4 9 -13
6 -22 -5 -23 -4 -6 9 9 8 17 19 17 26 0 15 17 14 23 -1 3 -9 13 -5 31 12 33
30 106 124 106 136 0 4 -8 -3 -17 -16 -9 -14 -25 -31 -35 -38 -10 -7 -18 -19
-18 -26 0 -7 -10 -22 -22 -34 -20 -18 -25 -19 -42 -7 -15 12 -17 17 -7 29 8
10 9 16 1 21 -15 9 -12 38 3 32 8 -3 20 -1 28 4 12 8 12 10 -1 19 -8 5 -21 8
-28 5 -9 -3 -10 0 -2 15 15 29 34 37 25 11 -3 -11 -2 -21 3 -21 10 0 25 26 27
45 0 6 13 24 28 40 29 32 37 85 13 85 -8 0 -17 8 -20 18 -2 9 -2 -8 1 -39z
m20 -21 c-3 -7 -5 -2 -5 12 0 14 2 19 5 13 2 -7 2 -19 0 -25z m-147 -278 c0
-5 -2 -10 -4 -10 -3 0 -8 5 -11 10 -3 6 -1 10 4 10 6 0 11 -4 11 -10z"/>
<path d="M2900 4684 c0 -8 5 -12 10 -9 6 3 10 10 10 16 0 5 -4 9 -10 9 -5 0
-10 -7 -10 -16z"/>
<path d="M2970 4652 c0 -4 9 -13 20 -19 16 -11 18 -10 14 1 -6 15 -34 30 -34
18z"/>
<path d="M2971 4614 c0 -11 3 -14 6 -6 3 7 2 16 -1 19 -3 4 -6 -2 -5 -13z"/>
<path d="M2905 4570 c7 -11 0 -30 -26 -82 -5 -10 -5 -18 -1 -18 5 0 15 12 22
28 8 15 20 34 27 42 10 13 9 18 -8 29 -14 8 -19 9 -14 1z"/>
<path d="M3102 4487 c-29 -29 -52 -58 -52 -64 0 -14 90 -103 104 -103 7 0 36
25 66 55 l54 55 -54 55 c-30 30 -57 55 -60 55 -3 0 -29 -24 -58 -53z"/>
<path d="M3164 4179 c-20 -22 -14 -42 22 -66 18 -12 23 -10 43 18 22 29 22 31
5 50 -22 25 -46 24 -70 -2z"/>
<path d="M3160 3943 l-22 -28 27 -22 c33 -29 36 -29 65 2 22 23 22 25 6 50
-21 33 -49 32 -76 -2z"/>
<path d="M1399 4021 l-29 -29 0 -472 c0 -420 2 -476 17 -507 30 -65 18 -64
674 -61 l591 3 34 37 34 38 0 481 0 481 -30 30 c-28 27 -36 30 -75 25 -38 -4
-57 -15 -122 -73 -142 -126 -418 -379 -421 -386 -9 -19 -35 -3 -113 70 -106
98 -363 329 -407 365 -48 39 -112 38 -153 -2z m584 -555 c30 -25 61 -46 70
-46 15 0 144 110 407 347 l125 113 3 -190 c1 -105 1 -275 0 -379 l-3 -189
-105 85 c-184 150 -218 173 -259 173 -54 0 -81 -23 -81 -68 0 -49 7 -58 55
-71 45 -12 115 -65 115 -86 0 -18 46 -49 59 -41 5 4 12 2 15 -2 3 -5 -64 -9
-149 -10 -105 0 -153 3 -149 10 4 7 -2 8 -17 3 -13 -5 -71 -8 -129 -7 -159 1
-157 1 -140 12 9 6 10 10 3 10 -6 0 -20 3 -30 6 -13 4 -14 3 -5 -4 11 -7 11
-10 -2 -15 -8 -3 -18 -2 -21 3 -8 13 115 109 158 122 43 13 53 23 62 60 10 38
-31 78 -79 78 -41 0 -87 -30 -260 -169 l-126 -101 0 395 0 396 215 -194 c118
-107 238 -216 268 -241z m363 -327 c19 -22 19 -22 -3 -10 -13 6 -23 16 -23 21
0 15 5 12 26 -11z m-616 -29 c0 -5 -5 -10 -11 -10 -5 0 -7 5 -4 10 3 6 8 10
11 10 2 0 4 -4 4 -10z"/>
<path d="M7920 4116 c-92 -26 -177 -74 -228 -131 -59 -64 -82 -124 -82 -210 0
-131 50 -205 193 -286 191 -109 238 -143 263 -190 12 -24 11 -32 -18 -85 -110
-203 92 -427 297 -330 141 66 188 235 98 354 l-24 32 28 42 c32 47 111 99 253
165 117 55 167 95 205 164 27 48 30 63 30 139 0 75 -3 91 -30 138 -40 74 -119
143 -202 178 l-68 29 -335 2 c-246 1 -347 -2 -380 -11z m735 -144 c55 -25 109
-72 131 -114 18 -35 18 -111 0 -146 -23 -43 -54 -67 -166 -122 -58 -28 -149
-77 -202 -108 -88 -50 -99 -60 -114 -99 -15 -40 -19 -43 -53 -43 -32 0 -38 4
-52 39 -21 49 -55 73 -249 181 -165 92 -193 119 -206 196 -15 98 87 207 219
234 23 5 177 8 342 7 290 -2 302 -3 350 -25z m-341 -808 c56 -56 18 -153 -59
-151 -18 0 -32 4 -29 9 3 4 -1 5 -9 2 -24 -9 -57 35 -57 76 0 82 96 122 154
64z"/>
<path d="M7896 3754 c-25 -24 -20 -53 11 -60 45 -12 80 28 53 61 -16 19 -45
19 -64 -1z"/>
<path d="M8104 3756 c-3 -8 -4 -25 -2 -38 2 -19 9 -23 38 -23 31 0 35 3 38 29
2 16 -2 32 -10 37 -21 14 -58 10 -64 -5z"/>
<path d="M8318 3745 c-9 -21 -9 -29 4 -42 21 -20 64 -10 73 18 15 47 -56 70
-77 24z"/>
<path d="M8553 3759 c-34 -13 -31 -57 4 -65 14 -4 33 -2 42 3 39 25 -2 80 -46
62z"/>
<path d="M3165 3026 c-22 -33 -5 -66 33 -66 33 0 52 16 52 45 0 48 -58 62 -85
21z"/>
<path d="M3133 2730 c-12 -5 -26 -17 -31 -27 -12 -22 -22 -130 -11 -112 6 11
9 10 14 -3 9 -22 66 -41 98 -33 14 4 33 15 43 26 9 10 20 16 24 14 5 -3 7 3 5
12 -11 55 -12 102 -3 96 7 -3 8 -1 4 6 -4 6 -12 9 -17 6 -5 -4 -19 1 -31 9
-25 17 -61 20 -95 6z"/>
<path d="M2922 2605 c-7 -8 -9 -15 -4 -15 5 0 15 7 22 15 16 19 -1 19 -18 0z"/>
<path d="M3050 2534 c0 -5 16 -26 36 -45 26 -24 33 -28 25 -12 -8 16 -8 22 2
26 7 2 2 9 -13 17 -23 12 -24 12 -11 -3 8 -10 9 -17 3 -17 -6 0 -18 10 -26 22
-9 12 -16 18 -16 12z"/>
<path d="M7039 3039 c-10 -10 -19 -27 -19 -37 0 -43 54 -56 85 -22 38 42 -25
100 -66 59z"/>
<path d="M7026 2709 c-51 -60 -21 -143 56 -156 32 -5 41 -1 69 26 28 28 30 36
25 74 -3 23 -6 51 -7 62 -1 11 -3 14 -6 8 -4 -10 -10 -10 -26 2 -36 25 -82 19
-111 -16z"/>
<path d="M7068 2523 c7 -3 16 -2 19 1 4 3 -2 6 -13 5 -11 0 -14 -3 -6 -6z"/>
<path d="M7085 2500 c-3 -5 -2 -10 4 -10 5 0 13 5 16 10 3 6 2 10 -4 10 -5 0
-13 -4 -16 -10z"/>
<path d="M7121 2460 c6 -14 13 -26 14 -28 1 -1 10 10 20 25 17 27 17 27 0 11
-17 -16 -19 -16 -32 0 -12 15 -13 14 -2 -8z"/>
<path d="M5070 2521 c-120 -37 -198 -150 -187 -270 13 -144 110 -235 252 -235
53 0 80 5 111 21 164 87 196 293 66 420 -62 60 -166 87 -242 64z m133 -171
c19 -17 37 -42 40 -57 8 -44 -19 -97 -59 -116 -53 -26 -82 -21 -120 17 -28 28
-34 42 -34 76 0 51 12 75 48 94 44 25 87 20 125 -14z"/>
<path d="M2719 2241 c-40 -40 -40 -89 0 -133 24 -27 36 -33 71 -33 35 0 47 6
71 33 40 44 40 93 0 133 -23 23 -38 29 -71 29 -33 0 -48 -6 -71 -29z"/>
<path d="M5033 1479 c-81 -40 -123 -111 -123 -209 0 -74 23 -124 80 -172 139
-120 350 -41 385 144 16 83 -49 202 -129 239 -58 26 -158 25 -213 -2z m183
-133 c28 -28 34 -42 34 -76 0 -34 -6 -47 -31 -71 -55 -51 -109 -51 -160 1 -43
42 -41 100 5 146 28 28 42 34 76 34 34 0 48 -6 76 -34z"/>
<path d="M2705 9034 c-9 -9 -15 -28 -13 -43 2 -20 9 -27 31 -29 16 -2 35 2 43
9 20 17 17 56 -5 69 -27 14 -37 13 -56 -6z"/>
<path d="M7494 9015 c-8 -31 10 -55 42 -55 27 0 48 32 39 60 -5 15 -15 20 -40
20 -29 0 -36 -4 -41 -25z"/>
<path d="M1275 8145 c-25 -24 -33 -73 -19 -110 8 -21 56 -45 89 -45 34 0 85
53 85 87 0 29 -17 63 -39 80 -28 22 -89 16 -116 -12z"/>
<path d="M8889 8157 c-21 -16 -39 -51 -39 -76 0 -82 93 -120 151 -62 59 60 24
151 -58 151 -21 0 -45 -6 -54 -13z"/>
<path d="M906 7049 c-34 -27 -32 -64 6 -92 35 -26 73 -16 93 23 17 34 9 62
-25 80 -28 15 -44 12 -74 -11z"/>
<path d="M9290 7050 c-40 -40 -13 -110 43 -110 22 0 67 43 67 65 0 23 -45 65
-70 65 -11 0 -29 -9 -40 -20z"/>
<path d="M822 6838 c-15 -15 -15 -51 0 -66 18 -18 53 -15 71 6 22 24 21 35 -1
55 -22 20 -53 22 -70 5z"/>
<path d="M9386 6834 c-21 -21 -20 -37 5 -60 19 -17 23 -17 47 -3 15 8 28 23
30 32 8 41 -50 63 -82 31z"/>
<path d="M660 6345 c-21 -55 41 -98 83 -57 17 18 19 26 11 49 -8 23 -16 29
-47 31 -32 3 -38 0 -47 -23z"/>
<path d="M9536 6354 c-9 -8 -16 -23 -16 -33 0 -22 31 -51 53 -51 21 0 57 35
57 54 0 22 -29 46 -55 46 -13 0 -31 -7 -39 -16z"/>
</g>
</svg>
